#!OML:ASF F:\VICON\USERDATA\INSTALL\rory3\rory3.ASF
:FULLY-SPECIFIED
:DEGREES
3433
root 0.00769004 15.7045 -2.21452 4.38172 -9.66334 -9.955
lowerback 22.592 -1.05038 -12.0311
upperback 13.1098 -3.76453 -7.37323
thorax 2.26992 -2.33912 -0.508184
lowerneck -1.19422 -10.3308 -22.5319
upperneck -5.4358 -13.789 27.639
head 2.47304 -7.02318 11.9208
rclavicle -9.85972e-014 -1.27222e-013
rhumerus -11.0111 -23.4204 -3.79654
rradius 112.554
rwrist 31.6231
rhand -49.775 35.4209
rfingers 7.12502
rthumb -22.3731 6.69645
lclavicle -9.85972e-014 -1.27222e-013
lhumerus 21.9888 12.4517 74.2525
lradius 7.64093
lwrist -33.5538
lhand -6.28274 27.7765
lfingers 7.12502
lthumb 19.5605 56.8125
rfemur -34.6957 -2.20361 30.6665
rtibia 53.6128
rfoot -32.3871 1.47692
rtoes -22.4932
lfemur -36.1452 10.9784 -5.62007
ltibia 63.5377
lfoot -27.6547 0.0475576
ltoes -19.8709
3434
root 0.00362296 15.7271 -2.21615 4.4881 -9.66585 -9.77127
lowerback 22.4651 -1.01074 -12.11
upperback 13.084 -3.70972 -7.41201
thorax 2.3046 -2.31457 -0.522078
lowerneck -1.17288 -10.3409 -22.474
upperneck -5.42613 -13.8046 27.5609
head 2.46319 -7.03117 11.8804
rclavicle -7.95139e-014 -1.59028e-014
rhumerus -10.9427 -22.822 -4.06472
rradius 112.368
rwrist 31.5021
rhand -47.4002 34.842
rfingers 7.12502
rthumb -20.092 5.86086
lclavicle -7.95139e-014 -1.59028e-014
lhumerus 21.962 12.353 74.0179
lradius 7.98425
lwrist -33.4397
lhand -5.99674 27.3785
lfingers 7.12502
lthumb 19.8355 56.3863
rfemur -34.6846 -2.18465 30.4829
rtibia 53.3095
rfoot -32.2753 1.56233
rtoes -22.1216
lfemur -36.0946 10.8938 -5.85063
ltibia 63.2024
lfoot -27.5214 0.142957
ltoes -19.6195
3435
root -0.000423313 15.7529 -2.21701 4.64396 -9.6752 -9.7579
lowerback 22.2696 -0.968471 -11.9454
upperback 13.1015 -3.59153 -7.41533
thorax 2.39549 -2.25075 -0.644688
lowerneck -1.15503 -10.4274 -22.4194
upperneck -5.5537 -13.9077 27.5014
head 2.44095 -7.08601 11.8357
rclavicle -1.90833e-014 -1.90833e-014
rhumerus -10.9712 -22.3465 -4.17264
rradius 112.207
rwrist 31.097
rhand -45.3685 33.922
rfingers 7.12502
rthumb -18.1382 4.74772
lclavicle -1.90833e-014 -1.90833e-014
lhumerus 21.9514 12.1524 73.8654
lradius 8.53087
lwrist -33.2178
lhand -5.76401 26.9111
lfingers 7.12502
lthumb 20.0592 55.8956
rfemur -34.6397 -2.08931 30.4829
rtibia 52.9226
rfoot -32.11 1.57859
rtoes -22.1053
lfemur -36.0455 10.8385 -5.88707
ltibia 62.8358
lfoot -27.3643 0.220954
ltoes -19.4633
3436
root -0.00716898 15.7775 -2.21916 4.81206 -9.63654 -9.85314
lowerback 22.1205 -0.957639 -11.814
upperback 13.1299 -3.52455 -7.3588
thorax 2.48741 -2.21692 -0.673647
lowerneck -1.19328 -10.4749 -22.3231
upperneck -5.69747 -13.9409 27.3973
head 2.39798 -7.1023 11.7752
rclavicle 1.90833e-014 2.8625e-014
rhumerus -10.6334 -22.0005 -4.47546
rradius 111.927
rwrist 30.6875
rhand -43.2157 32.8184
rfingers 7.12502
rthumb -16.0661 3.46445
lclavicle 1.90833e-014 2.8625e-014
lhumerus 21.8931 12.1273 73.6251
lradius 9.16185
lwrist -32.9232
lhand -5.43388 26.2117
lfingers 7.12502
lthumb 20.3765 55.1626
rfemur -34.5484 -1.93917 30.5974
rtibia 52.4633
rfoot -31.8544 1.59827
rtoes -21.9745
lfemur -36.015 10.8606 -5.78653
ltibia 62.4489
lfoot -27.2328 0.309151
ltoes -20.1918
3437
root -0.0146612 15.8056 -2.22276 5.02197 -9.57959 -9.93077
lowerback 21.9699 -0.968505 -11.7227
upperback 13.1313 -3.49511 -7.30681
thorax 2.55574 -2.20167 -0.677531
lowerneck -1.19744 -10.4629 -22.3041
upperneck -5.8363 -13.9017 27.4059
head 2.35005 -7.08582 11.7828
rclavicle -2.8625e-014 -8.90555e-014
rhumerus -10.3149 -21.784 -4.78913
rradius 111.702
rwrist 30.4105
rhand -41.2188 31.5765
rfingers 7.12502
rthumb -14.1425 2.07785
lclavicle -2.8625e-014 -8.90555e-014
lhumerus 21.8452 12.1629 73.3043
lradius 9.65531
lwrist -32.584
lhand -5.14235 25.6129
lfingers 7.12502
lthumb 20.6566 54.5337
rfemur -34.4802 -1.81803 30.7111
rtibia 51.9517
rfoot -31.5385 1.5314
rtoes -21.7823
lfemur -36.0391 10.8939 -5.70407
ltibia 62.0294
lfoot -27.0625 0.211983
ltoes -20.0757
3438
root -0.0223957 15.8383 -2.22778 5.17919 -9.5155 -9.85772
lowerback 21.9343 -0.961033 -11.7051
upperback 13.1011 -3.47891 -7.32568
thorax 2.5349 -2.18914 -0.709816
lowerneck -1.35625 -10.4779 -22.3275
upperneck -5.70716 -13.9154 27.4703
head 2.42567 -7.08045 11.7968
rclavicle 5.08889e-014 3.18055e-014
rhumerus -10.2122 -21.7081 -5.03241
rradius 111.564
rwrist 30.2133
rhand -39.4974 30.7132
rfingers 7.12502
rthumb -12.4832 1.10604
lclavicle 5.08889e-014 3.18055e-014
lhumerus 21.7918 12.133 72.8959
lradius 10.1431
lwrist -32.0411
lhand -5.09148 24.7485
lfingers 7.12502
lthumb 20.7055 53.664
rfemur -34.4114 -1.71648 30.658
rtibia 51.4366
rfoot -31.2439 1.53261
rtoes -21.4382
lfemur -36.0101 10.829 -5.78843
ltibia 61.5771
lfoot -26.9009 0.128687
ltoes -19.774
